HIERARCHY
ROOT Hips
{
  OFFSET 0 0 0
  CHANNELS 6 Xposition Yposition Zposition Zrotation Yrotation Xrotation
  JOINT LeftThigh
  {
    OFFSET 8.409438 0 -5.917753
    CHANNELS 3 Zrotation Yrotation Xrotation
    JOINT LeftLeg
    {
      OFFSET 0 0 -42.358652
      CHANNELS 3 Zrotation Yrotation Xrotation
      JOINT LeftFoot
      {
        OFFSET 0 0 -39.357303
        CHANNELS 3 Zrotation Yrotation Xrotation
      }
    }
  }
  JOINT RightThigh
  {
    OFFSET -8.409438 0 -5.917753
    CHANNELS 3 Zrotation Yrotation Xrotation
    JOINT RightLeg
    {
      OFFSET 0 0 -42.358652
      CHANNELS 3 Zrotation Yrotation Xrotation
      JOINT RightFoot
      {
        OFFSET 0 0 -39.357303
        CHANNELS 3 Zrotation Yrotation Xrotation
      }
    }
  }
  JOINT SpineLow
  {
    OFFSET 0 0 4.719101
    CHANNELS 3 Zrotation Yrotation Xrotation
    JOINT SpineMid
    {
      OFFSET 0 0 12.899191
      CHANNELS 3 Zrotation Yrotation Xrotation
      JOINT Chest
      {
        OFFSET 0 0 12.899191
        CHANNELS 3 Zrotation Yrotation Xrotation
        JOINT LeftShoulder
        {
          OFFSET 7.550562 1.41573 9.438202
          CHANNELS 3 Zrotation Yrotation Xrotation
          JOINT LeftArm
          {
            OFFSET 9.155056 0 4.247191
            CHANNELS 3 Zrotation Yrotation Xrotation
            JOINT LeftForearm
            {
              OFFSET 0 0 25.771955
              CHANNELS 3 Zrotation Yrotation Xrotation
              JOINT LeftHand
              {
                OFFSET 0 0 25.197169
                CHANNELS 3 Zrotation Yrotation Xrotation
              }
            }
          }
        }
        JOINT RightShoulder
        {
          OFFSET -7.550562 1.41573 9.438202
          CHANNELS 3 Zrotation Yrotation Xrotation
          JOINT RightArm
          {
            OFFSET -9.155056 0 4.247191
            CHANNELS 3 Zrotation Yrotation Xrotation
            JOINT RightForearm
            {
              OFFSET 0 0 -25.771955
              CHANNELS 3 Zrotation Yrotation Xrotation
              JOINT RightHand
              {
                OFFSET 0 0 -25.197169
                CHANNELS 3 Zrotation Yrotation Xrotation
              }
            }
          }
        }
        JOINT Neck
        {
          OFFSET 0 0 15.101124
          CHANNELS 3 Zrotation Yrotation Xrotation
          JOINT Head
          {
            OFFSET 0 0 11.325843
            CHANNELS 3 Zrotation Yrotation Xrotation
            End Site
            {
              OFFSET 0 0 14.157303
            }
          }
        }
      }
    }
  }
}
MOTION
Frames: 12
Frame Time: 0.0
0.0  89.887642  0.0  3.298312  -24.230663  -97.684684  5.808757  -12.130684  4.702742  0.016937  4.69285  22.392687  1.591414  1.389998  0.557392  -14.989794  12.974851  0.56017  -12.614294  0.702801  -2.971894  8.619589  -0.28346  -0.478968  0.165027  -0.568026  0.486185  0.439719  -1.555879  1.325281  0.439719  -1.555879  1.325281  -3.811905  14.97835  1.105299  155.688462  42.898552  -151.613298  -5.50386  0.758732  7.907933  101.762047  -3.259638  1.68679  -5.878547  -1.549133  14.542549  93.815499  35.470945  35.452511  6.832477  17.984278  -41.343141  87.358375  -3.973965  -6.030446  -0.140264  5.069214  3.771248  -0.13649  3.801217  2.827753  
0.0  89.887642  0.0  3.401351  -23.927474  -97.642596  5.781586  -12.128582  4.372559  -0.108993  4.91125  22.733661  1.474748  1.333118  0.556161  -15.74345  13.169947  0.145564  -12.71855  0.620503  -2.699576  9.020031  -0.196235  -0.571293  0.19079  -0.540718  0.485117  0.510714  -1.481746  1.321948  0.510714  -1.481746  1.321947  -3.857209  14.932272  1.131748  155.494048  43.055261  -151.535953  -5.289054  0.918993  7.617575  101.716978  -3.337605  1.60172  -5.887784  -1.569927  14.515258  93.691107  35.40635  35.113  6.279012  17.612608  -43.238648  87.315893  -4.232558  -5.82699  -0.461117  5.014136  3.70315  -0.376085  3.757976  2.77938  
0.0  89.887642  0.0  3.531556  -23.639995  -97.64136  5.774856  -12.094757  4.084104  -0.291148  5.114859  23.023093  1.449772  1.324592  0.625387  -16.257125  13.414974  -0.201788  -12.675033  0.623128  -2.391071  9.250548  -0.149629  -0.65553  0.227988  -0.50362  0.485175  0.613133  -1.381092  1.321592  0.613133  -1.381092  1.321592  -4.086714  14.80643  1.11532  155.360365  43.22235  -151.437016  -5.161938  1.075731  7.235367  101.714715  -3.449696  1.503071  -5.788796  -1.64499  14.554113  93.5065  35.335854  34.694309  5.671085  17.103991  -45.252834  87.227983  -4.520086  -5.595122  -0.757117  4.972079  3.656776  -0.597323  3.724698  2.747036  
0.0  89.887642  0.0  3.625066  -23.136463  -97.557539  5.624798  -12.062396  3.790953  -0.479648  5.313553  23.283321  1.440088  1.318512  0.698147  -17.134352  13.575302  -0.693463  -12.766088  0.654981  -2.063602  9.653324  -0.111296  -0.690661  0.254012  -0.470649  0.487456  0.684879  -1.291516  1.327608  0.684879  -1.291516  1.327608  -4.285697  14.725175  1.087968  155.11281  43.490107  -151.273606  -4.979049  1.277346  6.845939  101.764418  -3.590933  1.418435  -5.835047  -1.73173  14.433154  93.513002  35.148407  34.249796  5.003587  16.393495  -47.353236  87.106054  -4.791476  -5.343668  -1.140613  4.902163  3.587903  -0.883815  3.670096  2.698462  
0.0  89.887642  0.0  3.758353  -22.674235  -97.522095  5.339145  -11.968544  3.451934  -0.601294  5.507547  23.581533  1.493636  1.319159  0.782064  -17.658097  13.788556  -1.058341  -12.727916  0.775896  -1.692641  9.802756  -0.085387  -0.777613  0.295369  -0.426473  0.490212  0.798756  -1.171633  1.334842  0.798756  -1.171633  1.334842  -4.563289  14.600213  1.05655  154.936274  43.801179  -151.057722  -4.711599  1.547909  6.382359  101.895961  -3.765696  1.355351  -5.666717  -1.880351  14.40071  93.485742  34.99691  33.71839  4.243915  15.371302  -49.498115  86.946282  -5.060168  -5.183622  -1.523271  4.833254  3.531951  -1.169812  3.616314  2.659481  
0.0  89.887642  0.0  3.780056  -21.88471  -97.357539  4.852129  -11.917052  3.088096  -0.826408  5.685499  23.82131  1.515099  1.2882  0.809418  -18.554296  13.880156  -1.53421  -12.900306  0.932445  -1.301772  10.04141  -0.070001  -0.81194  0.320138  -0.39817  0.48697  0.86708  -1.094733  1.325898  0.86708  -1.094733  1.325898  -4.962335  14.544528  0.960424  154.650536  44.205789  -150.818046  -4.340934  1.880737  5.83702  102.116302  -3.956576  1.364232  -5.478342  -2.041867  14.267925  93.535683  34.774882  33.178469  3.380649  13.962584  -51.704998  86.669495  -5.359991  -5.118045  -2.037391  4.751958  3.456599  -1.554156  3.552636  2.606869  
0.0  89.887642  0.0  3.928842  -21.085936  -97.281169  4.205378  -11.701596  2.676072  -0.918287  5.818907  24.135913  1.573321  1.29799  0.891384  -19.255371  14.102153  -2.006543  -12.873283  1.180401  -0.792694  10.104182  -0.043526  -0.869172  0.360804  -0.341482  0.48392  0.979404  -0.940561  1.317701  0.979404  -0.940561  1.317701  -5.40737  14.418311  0.88845  154.270511  44.684854  -150.586287  -3.899011  2.272523  5.215558  102.407139  -4.16457  1.453885  -5.141219  -2.352624  14.157463  93.719194  34.481678  32.696939  2.431819  12.111626  -53.969768  86.205817  -5.664936  -5.167867  -2.598267  4.623833  3.399421  -1.973482  3.453634  2.56793  
0.0  89.887642  0.0  4.008489  -20.039605  -97.186449  3.51581  -11.521889  2.341977  -1.072186  5.985203  24.437049  1.596318  1.245793  0.91509  -20.067145  14.291181  -2.44026  -13.080562  1.449771  -0.264841  10.188465  -0.014875  -0.91531  0.400411  -0.290791  0.493771  1.088545  -0.80296  1.344877  1.088545  -0.80296  1.344878  -5.935104  14.310306  0.743424  153.653844  45.262856  -150.379389  -3.367722  2.698005  4.514623  102.701241  -4.389941  1.613692  -4.887595  -2.738425  13.922467  93.894465  34.027838  32.11067  1.600687  9.830655  -56.280268  85.55268  -5.910014  -5.314148  -3.308785  4.452182  3.306721  -2.504556  3.321477  2.503025  
0.0  89.887642  0.0  4.171119  -18.75233  -97.062165  2.438691  -11.178499  1.804857  -1.19006  6.077874  24.784614  1.725272  1.242997  1.01799  -20.933803  14.573247  -2.894188  -13.143261  1.803019  0.327172  10.157991  0.008475  -0.969578  0.451639  -0.21739  0.493997  1.230043  -0.603386  1.346212  1.230043  -0.603386  1.346212  -6.685899  14.177475  0.596075  152.969344  45.927327  -150.146445  -2.754207  3.172758  3.717094  103.016383  -4.649559  1.769876  -4.647514  -3.247087  13.719365  93.897149  33.487544  31.31505  1.021042  7.093343  -58.603215  84.631146  -6.02645  -5.477895  -4.173905  4.244496  3.234737  -3.151601  3.161573  2.454112  
0.0  89.887642  0.0  4.286479  -17.198712  -96.91416  1.182067  -10.865613  1.166822  -0.94124  6.156227  25.419664  1.480174  1.153546  0.926278  -21.92085  14.836687  -3.304595  -13.297296  2.209527  0.926029  9.902078  -0.006064  -1.038927  0.525126  -0.14642  0.497618  1.432314  -0.410987  1.356952  1.432314  -0.410987  1.356952  -7.72622  14.078882  0.509455  152.340191  46.682051  -149.732056  -2.014627  3.718813  2.851796  103.372347  -4.998848  1.826461  -4.490619  -3.798377  13.472971  94.022152  32.888804  30.432982  0.523776  3.716634  -61.065836  83.403767  -6.097672  -5.605487  -5.266081  3.997023  3.182027  -3.968923  2.970719  2.420254  
0.0  89.887642  0.0  4.434323  -15.357918  -96.786059  -0.179431  -10.51479  0.481308  -1.122612  6.250825  25.759496  1.490691  1.187392  1.055157  -23.054202  15.165408  -3.677518  -13.238981  2.684164  1.548286  9.719405  -0.013848  -1.034519  0.625658  -0.067465  0.495805  1.708713  -0.197211  1.353388  1.708713  -0.197211  1.353388  -9.015594  13.970236  0.500556  151.711611  47.521111  -149.143029  -1.131866  4.352338  1.833406  103.721326  -5.433741  1.80981  -4.364837  -4.425616  13.278074  94.370004  32.377724  29.607511  0.134167  -0.392622  -63.782893  81.71013  -6.058355  -5.58546  -6.62522  3.728849  3.184439  -4.98677  2.762603  2.428298  
0.0  89.887642  0.0  4.533021  -13.317325  -96.638399  -1.538718  -10.236964  -0.216798  -1.35232  6.373309  26.052226  1.555478  1.2497  1.249681  -24.28746  15.461873  -4.017244  -13.092505  3.20013  2.179782  9.16793  -0.067988  -1.014377  0.767221  -0.0059  0.500384  2.096897  -0.031997  1.367405  2.096897  -0.031997  1.367405  -10.527903  13.897275  0.496013  151.020263  48.406544  -148.353654  -0.21363  5.115966  0.691295  103.980413  -5.846551  1.633546  -4.385137  -5.052427  13.007212  95.013611  31.86003  28.74126  -0.012933  -4.900273  -66.751775  79.526391  -5.768912  -5.193602  -8.257211  3.478701  3.1965  -6.209415  2.566489  2.444221  
